<?xml version="1.0" standalone="no"?><!DOCTYPE svg PUBLIC "-//W3C//DTD SVG 1.1//EN" "http://www.w3.org/Graphics/SVG/1.1/DTD/svg11.dtd"><svg t="1741614853271" class="icon" viewBox="0 0 2094 1024" version="1.1" xmlns="http://www.w3.org/2000/svg" p-id="6173" xmlns:xlink="http://www.w3.org/1999/xlink" width="408.984375" height="200"><path d="M213.263756 184.828589m241.698924 0l995.230861 0q241.698924 0 241.698924 241.698923l0 0q0 241.698924-241.698924 241.698924l-995.230861 0q-241.698924 0-241.698924-241.698924l0 0q0-241.698924 241.698924-241.698923Z" fill="#000000" p-id="6174"></path><path d="M1720.327632 547.376974c-7.108792-35.543959-47.870604-41.700173-71.087919-28.435168-82.931166 47.387207-243.120682 149.284629-220.372548 149.28463 28.435167 0 277.242883 28.435167 305.678051-21.326376 26.586882-46.534152-4.734455-59.244671-21.326376-63.979127 4.734455-2.374336 11.573113-13.23657 7.108792-35.543959z" fill="#FDB621" p-id="6175"></path><path d="M1659.31998 170.881139c-12.852696 9.340953-101.91164 11.132368-127.147851-1.976244l105.764605 151.076045c74.386398-81.509408 43.136149-164.895536 21.383246-149.099801zM501.823836 138.550354c56.870335 0 116.115006 35.543959 142.175837 49.761543C808.923644 421.48027 642.151387 604.247309 526.050598 668.226436H255.916507C139.730413 668.226436 102.594084 496.932987 139.27545 330.487734c31.335555-142.175837 177.719797-199.046172 248.807716-191.93738-9.483128-16.59192-28.435167-63.979127 0-78.196711 28.776389-14.388195 52.13588 18.952039 63.979126 42.652751-2.374336-18.952039 28.435167-47.984345 49.761544-42.652751 35.543959 8.88599 28.435167 49.761543 0 78.196711z" fill="#000000" p-id="6176"></path><path d="M21.326376 590.029725c0-56.870335 106.631878-78.196711 149.284629-71.087919C212.695053 573.437805 319.895634 668.226436 305.67805 668.226436c-170.611005 0-284.351675 7.108792-284.351674-78.196711z" fill="#000000" p-id="6177"></path><path d="M575.812141 291.460467c-159.236938-62.557368-184.828589 68.713582-177.719796 142.175837 3.440655 35.543959-63.979127 35.543959-63.979127 7.108792 0-35.543959 21.326376-153.905344-71.087919-149.284629-142.175837 7.108792-95.03033 232.258448-78.19671 270.134091 28.435167 63.979127 85.305502 106.631878 120.849461 106.631878 99.523086 0 198.434816 0.142176 199.046173 0 163.92874-40.989294 191.93738-329.279239 71.087918-376.765969z" fill="#FFFFFF" p-id="6178"></path><path d="M419.41872 554.485766c62.742197-31.36399 194.837768-70.050035 278.010633-71.073701a12.76739 12.76739 0 0 1 6.369477 1.606587C782.990771 529.519689 659.639015 668.226436 540.268182 668.226436h-110.669672a13.862144 13.862144 0 0 1-5.914515-1.322236c-74.642315-35.615047-46.391976-91.347976-4.265275-112.418434z" fill="#000000" p-id="6179"></path><path d="M362.548385 433.636304c-33.453975 0-52.24962 21.326376-60.353643 39.411142-2.644471 5.900297 0.341222 12.596779 6.213084 15.312338 51.552959 23.885541 89.286426 7.748583 106.134263-7.165662a9.838568 9.838568 0 0 0 2.644471-11.430938c-6.269954-13.961667-24.496897-36.12688-54.638175-36.12688z" fill="#FDB621" p-id="6180"></path><path d="M520.80431 433.707392c-21.738686 12.483039-40.264197 9.724827-59.813375-4.037794-9.269865-6.540089-17.203276-2.345901-10.64897 6.923963 9.170342 12.923784 23.956629 25.47791 40.321067 25.47791 14.373977 0 28.747954-9.682175 39.453795-20.800325 8.786467-9.127689 1.677675-13.876362-9.312517-7.563754zM281.593463 423.755083c-19.279044 16.023217-38.017819 16.492397-59.628546 6.255737-10.265095-4.833978-17.345452 0.654009-9.298299 8.658509 11.231891 11.160803 27.965987 20.999371 44.088727 18.198507 14.160713-2.47386 26.672187-14.4735 35.30226-27.255108 7.108792-10.492577-0.725097-13.961667-10.464142-5.857645zM1322.235287 142.175837c-85.589854 7.137227-149.284629 42.652751-284.351674 42.652752l376.765969 483.397847c184.828589 0 319.895634-120.849462 263.025299-327.004426S1492.846292 127.958254 1322.235287 142.175837z" fill="#000000" p-id="6181"></path></svg>