<?xml version="1.0" standalone="no"?><!DOCTYPE svg PUBLIC "-//W3C//DTD SVG 1.1//EN" "http://www.w3.org/Graphics/SVG/1.1/DTD/svg11.dtd"><svg t="1741614834737" class="icon" viewBox="0 0 2094 1024" version="1.1" xmlns="http://www.w3.org/2000/svg" p-id="5843" xmlns:xlink="http://www.w3.org/1999/xlink" width="408.984375" height="200"><path d="M213.263726 184.828563m241.69889 0l995.230724 0q241.69889 0 241.69889 241.69889l0 0q0 241.69889-241.69889 241.69889l-995.230724 0q-241.69889 0-241.69889-241.69889l0 0q0-241.69889 241.69889-241.69889Z" fill="#000000" p-id="5844"></path><path d="M1720.327393 547.376898c-7.108791-35.543954-47.870598-41.700167-71.087909-28.435164-82.931154 47.3872-243.120648 149.284608-220.372517 149.284609 28.435164 0 277.242844 28.435164 305.678008-21.326373 26.586878-46.534145-4.734455-59.244663-21.326373-63.979118 4.734455-2.374336 11.573112-13.236569 7.108791-35.543954z" fill="#FDB621" p-id="5845"></path><path d="M1563.933994 92.414281c-7.108791 14.217582-28.435164 35.543954-56.870327 35.543955l106.631863 106.631863c28.435164-106.631863-37.74768-166.203531-49.761536-142.175818zM455.431797 121.901546C554.485689 113.740654 625.573598 149.298826 654.008761 184.828563c149.284608 186.534673 42.652745 483.39778-106.631863 483.39778-14.189147 0.853055-156.535575-5.061459-241.69889 0-115.987032 6.88131-194.112644-152.639958-167.340937-320.976126 21.113109-132.934389 133.218741-203.666859 210.860955-215.396364-19.023124-9.483127-52.192743-39.638618-32.174388-62.187702 17.018445-19.1653 59.002964-5.871861 72.225315 17.075315-8.359938-20.87141-9.198775-35.060557 11.658418-43.420494 20.87141-8.359938 70.206419 17.203274 54.524426 78.580574z" fill="#000000" p-id="5846"></path><path d="M21.326373 590.029643c0-56.870327 106.631863-78.1967 149.284608-71.087909C212.695023 573.437725 319.89559 668.226343 305.678008 668.226343c-170.610981 0-284.351635 7.108791-284.351635-78.1967z" fill="#000000" p-id="5847"></path><path d="M575.812061 291.460426c-159.236916-62.55736-184.828563 68.713573-177.719772 142.175818 3.440655 35.543954-63.979118 35.543954-63.979118 7.108791 0-35.543954 21.326373-153.905323-71.087908-149.284609-142.175818 7.108791-95.030316 232.258416-78.1967 270.134054 28.435164 63.979118 85.305491 106.631863 120.849445 106.631863 99.523072 0 198.434789 0.142176 199.046145 0 163.928718-40.989288 191.937354-329.279194 71.087908-376.765917z" fill="#FFFFFF" p-id="5848"></path><path d="M419.418662 554.485689c62.742188-31.363985 194.83774-70.050025 278.010594-71.059474a12.767388 12.767388 0 0 1 6.369476 1.592369C782.990663 529.519615 659.638923 668.226343 540.268107 668.226343h-110.669656a13.847925 13.847925 0 0 1-5.914515-1.322235c-74.642304-35.615042-46.391969-91.347963-4.265274-112.418419z" fill="#000000" p-id="5849"></path><path d="M362.548335 433.636244c-33.45397 0-52.249613 21.326373-60.353635 39.411136-2.64447 5.900296 0.341222 12.596777 6.213084 15.312336 51.552951 23.885537 89.286413 7.748582 106.134247-7.165661a9.838567 9.838567 0 0 0 2.644471-11.430936c-6.269954-13.961665-24.496893-36.126875-54.638167-36.126875z" fill="#FDB621" p-id="5850"></path><path d="M520.804238 433.707332c-21.738683 12.483037-40.264192 9.724826-59.813367-4.037794-9.269863-6.540088-17.203274-2.345901-10.648969 6.923963 9.17034 12.923782 23.956625 25.477907 40.321062 25.477906 14.373975 0 28.74795-9.682173 39.45379-20.800322 8.786466-9.127687 1.677675-13.87636-9.312516-7.563753zM281.593424 423.755024c-19.279041 16.023215-38.017814 16.492395-59.628538 6.255736-10.265094-4.833978-17.34545 0.654009-9.298298 8.658508 11.23189 11.160802 27.965983 20.999368 44.088721 18.198504 14.160711-2.473859 26.672183-14.473498 35.302256-27.255104 7.108791-10.492575-0.725097-13.961665-10.464141-5.857644zM1308.017522 113.740654c-78.1967 35.543954-135.067027 71.087909-270.134053 71.087909l376.765916 483.39778c184.828563 0 319.89559-120.849445 263.025263-327.004381S1428.866967 58.803918 1308.017522 113.740654zM90.42382 412.309871l-2.985692-4.108881 0.355439-39.396919-0.270134-0.369657-18.39755 13.449832-3.668137-5.018806 25.022944-18.28381 3.127868 4.265274 0.042653 38.856651 0.270134 0.35544 19.094212-13.947448 3.653919 5.004589L90.438038 412.309871zM58.078821 312.161225l-1.805632-10.236659 36.183745-72.054704-0.156393-0.909925-45.922789 8.104021-2.203725-12.511472L106.631863 213.548078l1.890939 10.691622-34.961034 71.37226 0.170611 0.895708 47.643116-8.416809 2.217943 12.511472-65.500399 11.573112z" fill="#000000" p-id="5851"></path></svg>